{
  "accessors": [
    {
      "bufferView": 3,
      "componentType": 5126,
      "count": 319,
      "max": [
        4.228210926055908,
        -3.5428216457366943,
        20.964332580566406
      ],
      "min": [
        -4.228211402893066,
        -21.243370056152344,
        -3.1565475463867188
      ],
      "type": "VEC3"
    },
    {
      "bufferView": 3,
      "byteOffset": 3828,
      "componentType": 5126,
      "count": 319,
      "max": [
        1.0,
        1.0,
        1.0
      ],
      "min": [
        -1.0,
        -1.0,
        -0.9999999403953552
      ],
      "type": "VEC3"
    },
    {
      "bufferView": 4,
      "componentType": 5126,
      "count": 319,
      "max": [
        1.0,
        0.7831597328186035,
        1.0,
        1.0
      ],
      "min": [
        -1.0,
        -0.7278959155082703,
        -1.0,
        1.0
      ],
      "type": "VEC4"
    },
    {
      "bufferView": 2,
      "componentType": 5126,
      "count": 319,
      "max": [
        0.9920633435249329,
        0.9841597676277161
      ],
      "min": [
        0.011298207566142082,
        0.007119646295905113
      ],
      "type": "VEC2"
    },
    {
      "bufferView": 1,
      "componentType": 5125,
      "count": 1260,
      "type": "SCALAR"
    },
    {
      "bufferView": 3,
      "byteOffset": 7656,
      "componentType": 5126,
      "count": 4,
      "max": [
        4.240091323852539,
        9.025748252868652,
        -14.985115051269531
      ],
      "min": [
        -4.224647521972656,
        0.4046669006347656,
        -14.985115051269531
      ],
      "type": "VEC3"
    },
    {
      "bufferView": 3,
      "byteOffset": 7704,
      "componentType": 5126,
      "count": 4,
      "max": [
        2.938735877055719e-39,
        2.220446049250313e-16,
        -1.0
      ],
      "min": [
        2.938735877055719e-39,
        2.220446049250313e-16,
        -1.0
      ],
      "type": "VEC3"
    },
    {
      "bufferView": 2,
      "byteOffset": 2552,
      "componentType": 5126,
      "count": 4,
      "max": [
        0.8700997233390808,
        0.4407513737678528
      ],
      "min": [
        0.6874125003814697,
        0.25806427001953125
      ],
      "type": "VEC2"
    },
    {
      "bufferView": 1,
      "byteOffset": 5040,
      "componentType": 5125,
      "count": 6,
      "type": "SCALAR"
    },
    {
      "bufferView": 3,
      "byteOffset": 7752,
      "componentType": 5126,
      "count": 837,
      "max": [
        5.497363567352295,
        10.522261619567871,
        16.70720672607422
      ],
      "min": [
        -5.468643665313721,
        -8.501447677612305,
        -22.749221801757813
      ],
      "type": "VEC3"
    },
    {
      "bufferView": 3,
      "byteOffset": 17796,
      "componentType": 5126,
      "count": 837,
      "max": [
        1.0,
        1.0,
        1.0
      ],
      "min": [
        -1.0,
        -1.0,
        -1.0
      ],
      "type": "VEC3"
    },
    {
      "bufferView": 4,
      "byteOffset": 5104,
      "componentType": 5126,
      "count": 837,
      "max": [
        1.0,
        0.9999992847442627,
        1.0,
        1.0
      ],
      "min": [
        -1.0,
        -1.0,
        -1.0,
        1.0
      ],
      "type": "VEC4"
    },
    {
      "bufferView": 2,
      "byteOffset": 2584,
      "componentType": 5126,
      "count": 837,
      "max": [
        0.9930026531219482,
        0.9863911271095276
      ],
      "min": [
        0.010658204555511475,
        0.00992867723107338
      ],
      "type": "VEC2"
    },
    {
      "bufferView": 1,
      "byteOffset": 5064,
      "componentType": 5125,
      "count": 2748,
      "type": "SCALAR"
    },
    {
      "bufferView": 3,
      "byteOffset": 27840,
      "componentType": 5126,
      "count": 34,
      "max": [
        2.6924538612365723,
        -1.6962921619415283,
        2.773841381072998
      ],
      "min": [
        -2.6924538612365723,
        -8.812085151672363,
        -2.6110682487487793
      ],
      "type": "VEC3"
    },
    {
      "bufferView": 3,
      "byteOffset": 28248,
      "componentType": 5126,
      "count": 34,
      "max": [
        1.0,
        2.546849771078996e-07,
        1.0
      ],
      "min": [
        -1.0,
        -2.672603898190573e-07,
        -1.0
      ],
      "type": "VEC3"
    },
    {
      "bufferView": 4,
      "byteOffset": 18496,
      "componentType": 5126,
      "count": 34,
      "max": [
        1.0,
        3.4709108831521007e-07,
        1.0,
        1.0
      ],
      "min": [
        -1.0,
        -9.155198199550796e-07,
        -1.0,
        1.0
      ],
      "type": "VEC4"
    },
    {
      "bufferView": 2,
      "byteOffset": 9280,
      "componentType": 5126,
      "count": 34,
      "max": [
        0.8746532201766968,
        0.24093970656394958
      ],
      "min": [
        0.6615581512451172,
        0.1822827309370041
      ],
      "type": "VEC2"
    },
    {
      "bufferView": 1,
      "byteOffset": 16056,
      "componentType": 5125,
      "count": 96,
      "type": "SCALAR"
    },
    {
      "bufferView": 5,
      "componentType": 5126,
      "count": 4,
      "max": [
        1.0,
        1.6291585325234337e-07,
        1.0,
        0.0,
        0.0077165826223790646,
        1.0,
        1.0,
        0.0,
        0.0,
        0.007716582156717777,
        1.0,
        0.0,
        19.94668960571289,
        6.478952884674072,
        6.478741645812988,
        1.0
      ],
      "min": [
        2.1685771234292162e-10,
        -1.0,
        0.0,
        0.0,
        -1.5777218104420236e-30,
        6.123234262925839e-17,
        -1.6291585325234337e-07,
        0.0,
        -1.0,
        -3.1391647326017846e-07,
        -7.030516724348956e-10,
        0.0,
        -0.032717227935791016,
        0.0,
        -1.1500645996420644e-05,
        1.0
      ],
      "type": "MAT4"
    },
    {
      "bufferView": 0,
      "componentType": 5123,
      "count": 319,
      "type": "VEC4"
    },
    {
      "bufferView": 4,
      "byteOffset": 19040,
      "componentType": 5126,
      "count": 319,
      "max": [
        1.0,
        0.0,
        0.0,
        0.0
      ],
      "min": [
        1.0,
        0.0,
        0.0,
        0.0
      ],
      "type": "VEC4"
    },
    {
      "bufferView": 0,
      "byteOffset": 2552,
      "componentType": 5123,
      "count": 4,
      "type": "VEC4"
    },
    {
      "bufferView": 4,
      "byteOffset": 24144,
      "componentType": 5126,
      "count": 4,
      "max": [
        1.0,
        0.0,
        0.0,
        0.0
      ],
      "min": [
        1.0,
        0.0,
        0.0,
        0.0
      ],
      "type": "VEC4"
    },
    {
      "bufferView": 0,
      "byteOffset": 2584,
      "componentType": 5123,
      "count": 837,
      "type": "VEC4"
    },
    {
      "bufferView": 4,
      "byteOffset": 24208,
      "componentType": 5126,
      "count": 837,
      "max": [
        1.0,
        0.0,
        0.0,
        0.0
      ],
      "min": [
        1.0,
        0.0,
        0.0,
        0.0
      ],
      "type": "VEC4"
    },
    {
      "bufferView": 0,
      "byteOffset": 9280,
      "componentType": 5123,
      "count": 34,
      "type": "VEC4"
    },
    {
      "bufferView": 4,
      "byteOffset": 37600,
      "componentType": 5126,
      "count": 34,
      "max": [
        1.0,
        0.0,
        0.0,
        0.0
      ],
      "min": [
        1.0,
        0.0,
        0.0,
        0.0
      ],
      "type": "VEC4"
    },
    {
      "bufferView": 6,
      "componentType": 5126,
      "count": 167,
      "max": [
        6.666666507720947
      ],
      "min": [
        0.0
      ],
      "type": "SCALAR"
    },
    {
      "bufferView": 7,
      "componentType": 5126,
      "count": 167,
      "max": [
        -1.787192838165197e-09,
        2.1377365655439462e-08,
        -0.09099873155355453,
        0.9958509802818298
      ],
      "min": [
        -3.643553014853751e-09,
        2.1140262873586835e-08,
        -0.1774466186761856,
        0.9841304421424866
      ],
      "type": "VEC4"
    },
    {
      "bufferView": 6,
      "byteOffset": 668,
      "componentType": 5126,
      "count": 166,
      "max": [
        6.666666507720947
      ],
      "min": [
        0.0
      ],
      "type": "SCALAR"
    },
    {
      "bufferView": 7,
      "byteOffset": 2672,
      "componentType": 5126,
      "count": 166,
      "max": [
        0.7071067094802856,
        -0.0027280531357973814,
        0.0027284331154078245,
        0.7071014642715454
      ],
      "min": [
        0.6543208360671997,
        -0.2731163799762726,
        -0.26807525753974915,
        0.6522325277328491
      ],
      "type": "VEC4"
    }
  ],
  "animations": [
    {
      "channels": [
        {
          "sampler": 0,
          "target": {
            "node": 15,
            "path": "rotation"
          }
        },
        {
          "sampler": 1,
          "target": {
            "node": 14,
            "path": "rotation"
          }
        }
      ],
      "name": "Take 001",
      "samplers": [
        {
          "input": 28,
          "interpolation": "LINEAR",
          "output": 29
        },
        {
          "input": 30,
          "interpolation": "LINEAR",
          "output": 31
        }
      ]
    }
  ],
  "asset": {
    "extras": {
      "author": "Marcel Schanz (https://sketchfab.com/mschanz)",
      "license": "CC-BY-4.0 (http://creativecommons.org/licenses/by/4.0/)",
      "source": "https://sketchfab.com/3d-models/surveillance-cam-3d7f98993ee340179af212e465dd8b4e",
      "title": "Surveillance Cam"
    },
    "generator": "Sketchfab-12.66.0",
    "version": "2.0"
  },
  "bufferViews": [
    {
      "buffer": 0,
      "byteLength": 9552,
      "byteStride": 8,
      "name": "shortBufferViews",
      "target": 34962
    },
    {
      "buffer": 0,
      "byteLength": 16440,
      "byteOffset": 9552,
      "name": "floatBufferViews",
      "target": 34963
    },
    {
      "buffer": 0,
      "byteLength": 9552,
      "byteOffset": 25992,
      "byteStride": 8,
      "name": "floatBufferViews",
      "target": 34962
    },
    {
      "buffer": 0,
      "byteLength": 28656,
      "byteOffset": 35544,
      "byteStride": 12,
      "name": "floatBufferViews",
      "target": 34962
    },
    {
      "buffer": 0,
      "byteLength": 38144,
      "byteOffset": 64200,
      "byteStride": 16,
      "name": "floatBufferViews",
      "target": 34962
    },
    {
      "buffer": 0,
      "byteLength": 256,
      "byteOffset": 102344,
      "name": "floatBufferViews"
    },
    {
      "buffer": 0,
      "byteLength": 1332,
      "byteOffset": 102600,
      "name": "floatBufferViews"
    },
    {
      "buffer": 0,
      "byteLength": 5328,
      "byteOffset": 103932,
      "byteStride": 16,
      "name": "floatBufferViews"
    }
  ],
  "buffers": [
    {
      "byteLength": 109260,
      "uri": "scene.bin"
    }
  ],
  "extensionsRequired": [
    "KHR_materials_pbrSpecularGlossiness"
  ],
  "extensionsUsed": [
    "KHR_materials_pbrSpecularGlossiness"
  ],
  "images": [
    {
      "uri": "textures/standard_varnish_diffuse.png"
    },
    {
      "uri": "textures/standard_varnish_specularGlossiness.png"
    },
    {
      "uri": "textures/standard_varnish_emissive.png"
    },
    {
      "uri": "textures/standard_varnish_normal.png"
    },
    {
      "uri": "textures/standard_varnish_occlusion.png"
    }
  ],
  "materials": [
    {
      "doubleSided": true,
      "emissiveFactor": [
        1.0,
        1.0,
        1.0
      ],
      "emissiveTexture": {
        "index": 2
      },
      "extensions": {
        "KHR_materials_pbrSpecularGlossiness": {
          "diffuseFactor": [
            1.0,
            1.0,
            1.0,
            1.0
          ],
          "diffuseTexture": {
            "index": 0
          },
          "glossinessFactor": 1.0,
          "specularFactor": [
            1.0,
            1.0,
            1.0
          ],
          "specularGlossinessTexture": {
            "index": 1
          }
        }
      },
      "name": "standard_varnish",
      "normalTexture": {
        "index": 3
      },
      "occlusionTexture": {
        "index": 4
      }
    },
    {
      "alphaMode": "BLEND",
      "extensions": {
        "KHR_materials_pbrSpecularGlossiness": {
          "diffuseFactor": [
            1.0,
            1.0,
            1.0,
            0.0
          ],
          "diffuseTexture": {
            "index": 0
          },
          "glossinessFactor": 1.0,
          "specularFactor": [
            1.0,
            1.0,
            1.0
          ],
          "specularGlossinessTexture": {
            "index": 1
          }
        }
      },
      "name": "glass"
    }
  ],
  "meshes": [
    {
      "name": "arm_standard varnish_0",
      "primitives": [
        {
          "attributes": {
            "JOINTS_0": 20,
            "NORMAL": 1,
            "POSITION": 0,
            "TANGENT": 2,
            "TEXCOORD_0": 3,
            "WEIGHTS_0": 21
          },
          "indices": 4,
          "material": 0,
          "mode": 4
        }
      ]
    },
    {
      "name": "cam_glass_0",
      "primitives": [
        {
          "attributes": {
            "JOINTS_0": 22,
            "NORMAL": 6,
            "POSITION": 5,
            "TEXCOORD_0": 7,
            "WEIGHTS_0": 23
          },
          "indices": 8,
          "material": 1,
          "mode": 4
        }
      ]
    },
    {
      "name": "cam_standard varnish_0",
      "primitives": [
        {
          "attributes": {
            "JOINTS_0": 24,
            "NORMAL": 10,
            "POSITION": 9,
            "TANGENT": 11,
            "TEXCOORD_0": 12,
            "WEIGHTS_0": 25
          },
          "indices": 13,
          "material": 0,
          "mode": 4
        }
      ]
    },
    {
      "name": "joint_standard varnish_0",
      "primitives": [
        {
          "attributes": {
            "JOINTS_0": 26,
            "NORMAL": 15,
            "POSITION": 14,
            "TANGENT": 16,
            "TEXCOORD_0": 17,
            "WEIGHTS_0": 27
          },
          "indices": 18,
          "material": 0,
          "mode": 4
        }
      ]
    }
  ],
  "nodes": [
    {
      "children": [
        1
      ],
      "matrix": [
        0.06523996591567993,
        0.0,
        0.0,
        0.0,
        0.0,
        1.448618245706966e-17,
        -0.06523996591567993,
        0.0,
        0.0,
        0.06523996591567993,
        1.448618245706966e-17,
        0.0,
        0.0,
        0.0,
        0.0,
        1.0
      ],
      "name": "Sketchfab_model"
    },
    {
      "children": [
        2
      ],
      "matrix": [
        1.0,
        0.0,
        0.0,
        0.0,
        0.0,
        0.0,
        1.0,
        0.0,
        0.0,
        -1.0,
        0.0,
        0.0,
        0.0,
        0.0,
        0.0,
        1.0
      ],
      "name": "223ae2cdea7846c7846301369b16eb04.fbx"
    },
    {
      "children": [
        3
      ],
      "name": "Object_2"
    },
    {
      "children": [
        4
      ],
      "name": "RootNode"
    },
    {
      "children": [
        5,
        7,
        9,
        10,
        12,
        6,
        8,
        11,
        16,
        17,
        18
      ],
      "name": "Object_4"
    },
    {
      "children": [
        13
      ],
      "name": "_rootJoint"
    },
    {
      "matrix": [
        1.0,
        0.0,
        1.1769982545061624e-39,
        0.0,
        1.1769982545061624e-39,
        6.123233995736766e-17,
        -1.0,
        0.0,
        -7.207035724914968e-56,
        1.0,
        6.123233995736766e-17,
        0.0,
        -6.352747104407253e-22,
        -0.1904735565185529,
        3.8141040802001953,
        1.0
      ],
      "name": "Object_6"
    },
    {
      "mesh": 0,
      "name": "Object_7",
      "skin": 0
    },
    {
      "matrix": [
        1.0,
        -2.6469779601696886e-23,
        0.0,
        0.0,
        1.6208065431676996e-39,
        6.123233995736766e-17,
        -1.0,
        0.0,
        2.646977960169689e-23,
        1.0000000000000002,
        6.123233995736767e-17,
        0.0,
        5.1745690798545074e-23,
        -0.1904735565185538,
        3.8141036033630376,
        1.0
      ],
      "name": "Object_8"
    },
    {
      "mesh": 1,
      "name": "Object_9",
      "skin": 0
    },
    {
      "mesh": 2,
      "name": "Object_10",
      "skin": 0
    },
    {
      "matrix": [
        1.0,
        0.0,
        1.0339757656912846e-25,
        0.0,
        1.0339757656912846e-25,
        6.123233995736766e-17,
        -1.0,
        0.0,
        -6.331275559248827e-42,
        1.0,
        6.123233995736766e-17,
        0.0,
        0.0,
        -0.1904735565185529,
        3.8141040802001918,
        1.0
      ],
      "name": "Object_11"
    },
    {
      "mesh": 3,
      "name": "Object_12",
      "skin": 0
    },
    {
      "children": [
        14
      ],
      "name": "Bone001_arm_00",
      "rotation": [
        -0.5000001788139343,
        0.49999991059303284,
        0.49999991059303284,
        0.5000001788139343
      ],
      "scale": [
        0.9999998211860657,
        0.9999998211860657,
        1.0
      ],
      "translation": [
        0.0,
        -6.478741645812988,
        19.94668960571289
      ]
    },
    {
      "children": [
        15
      ],
      "name": "Bone002_joint_01",
      "rotation": [
        0.7071050405502319,
        -0.0038702101446688175,
        0.0015862674918025732,
        0.7070961594581604
      ],
      "scale": [
        1.0000001192092896,
        0.9999998807907104,
        1.000000238418579
      ],
      "translation": [
        19.998973846435547,
        0.0,
        0.0
      ]
    },
    {
      "name": "Circle001_cam_02",
      "rotation": [
        -3.7156571153218465e-09,
        2.1318943055348427e-08,
        -0.17744658887386322,
        0.9841304421424866
      ],
      "scale": [
        1.000000238418579,
        1.000000238418579,
        1.0
      ],
      "translation": [
        -0.016990136355161667,
        0.3335118293762207,
        -1.049041748046875e-05
      ]
    },
    {
      "name": "arm",
      "rotation": [
        -0.7071068286895752,
        -0.0,
        0.0,
        0.7071068286895752
      ],
      "translation": [
        -2.384185791015625e-07,
        -12.393095970153809,
        20.964330673217773
      ]
    },
    {
      "name": "cam",
      "rotation": [
        -0.7071068286895752,
        -0.0,
        0.0,
        0.7071068286895752
      ],
      "translation": [
        0.0,
        -6.1453704833984375,
        -0.032717227935791016
      ]
    },
    {
      "name": "joint",
      "rotation": [
        -0.7071068286895752,
        -0.0,
        0.0,
        0.7071068286895752
      ],
      "translation": [
        -2.384185791015625e-07,
        -12.393095970153809,
        20.964330673217773
      ]
    }
  ],
  "samplers": [
    {
      "magFilter": 9729,
      "minFilter": 9987,
      "wrapS": 10497,
      "wrapT": 10497
    }
  ],
  "scene": 0,
  "scenes": [
    {
      "name": "Sketchfab_Scene",
      "nodes": [
        0
      ]
    }
  ],
  "skins": [
    {
      "inverseBindMatrices": 19,
      "joints": [
        5,
        13,
        14,
        15
      ],
      "skeleton": 5
    }
  ],
  "textures": [
    {
      "sampler": 0,
      "source": 0
    },
    {
      "sampler": 0,
      "source": 1
    },
    {
      "sampler": 0,
      "source": 2
    },
    {
      "sampler": 0,
      "source": 3
    },
    {
      "sampler": 0,
      "source": 4
    }
  ]
}
